<?xml version="1.0" encoding="UTF-8" standalone="no"?>
<!-- Created with Inkscape (http://www.inkscape.org/) -->

<svg
   version="1.1"
   id="svg3450"
   xml:space="preserve"
   width="682.66669"
   height="682.66669"
   viewBox="0 0 682.66669 682.66669"
   xmlns="http://www.w3.org/2000/svg"
   xmlns:svg="http://www.w3.org/2000/svg"><defs
     id="defs3454"><clipPath
       clipPathUnits="userSpaceOnUse"
       id="clipPath3464"><path
         d="M 0,512 H 512 V 0 H 0 Z"
         id="path3462" /></clipPath></defs><g
     id="g3456"
     transform="matrix(1.3333333,0,0,-1.3333333,0,682.66667)"><g
       id="g3458"><g
         id="g3460"
         clip-path="url(#clipPath3464)"><g
           id="g3466"
           transform="translate(504.5,308.105)"><path
             d="M 0,0 C 0,48.699 -111.257,88.177 -248.5,88.177 -385.743,88.177 -497,48.699 -497,0"
             style="fill:none;stroke:#000000;stroke-width:15;stroke-linecap:round;stroke-linejoin:round;stroke-miterlimit:10;stroke-dasharray:none;stroke-opacity:1"
             id="path3468" /></g><g
           id="g3470"
           transform="translate(7.5,308.105)"><path
             d="M 0,0 V -192.387 H 112.226 Z"
             style="fill:none;stroke:#000000;stroke-width:15;stroke-linecap:round;stroke-linejoin:round;stroke-miterlimit:10;stroke-dasharray:none;stroke-opacity:1"
             id="path3472" /></g><g
           id="g3474"
           transform="translate(504.5,308.105)"><path
             d="M 0,0 V -192.387 H -112.226 Z"
             style="fill:none;stroke:#000000;stroke-width:15;stroke-linecap:round;stroke-linejoin:round;stroke-miterlimit:10;stroke-dasharray:none;stroke-opacity:1"
             id="path3476" /></g><g
           id="g3478"
           transform="translate(311.3062,197.791)"><path
             d="m 0,0 c -16.028,3.868 -34.988,6.104 -55.306,6.104 -57.553,0 -104.21,-17.944 -104.21,-40.081 0,-22.135 46.657,-40.08 104.21,-40.08 57.553,0 104.209,17.945 104.209,40.08 0,7.972 -6.05,15.4 -16.48,21.642"
             style="fill:none;stroke:#000000;stroke-width:15;stroke-linecap:round;stroke-linejoin:round;stroke-miterlimit:10;stroke-dasharray:none;stroke-opacity:1"
             id="path3480" /></g><g
           id="g3482"
           transform="translate(504.5,308.105)"><path
             d="M 0,0 C 0,48.699 -111.257,88.177 -248.5,88.177 -385.743,88.177 -497,48.699 -497,0"
             style="fill:none;stroke:#000000;stroke-width:15;stroke-linecap:round;stroke-linejoin:round;stroke-miterlimit:10;stroke-dasharray:none;stroke-opacity:1"
             id="path3484" /></g><g
           id="g3486"
           transform="translate(413.2456,322.9297)"><path
             d="m 0,0 c -40.497,15.621 -96.007,25.256 -157.246,25.256 -116.213,0 -211.798,-34.698 -223.293,-79.162"
             style="fill:none;stroke:#000000;stroke-width:15;stroke-linecap:round;stroke-linejoin:round;stroke-miterlimit:10;stroke-dasharray:none;stroke-opacity:1"
             id="path3488" /></g><g
           id="g3490"
           transform="translate(479.9526,265.9341)"><path
             d="M 0,0 C -2.43,14.389 -13.646,27.833 -31.559,39.514"
             style="fill:none;stroke:#000000;stroke-width:15;stroke-linecap:round;stroke-linejoin:round;stroke-miterlimit:10;stroke-dasharray:none;stroke-opacity:1"
             id="path3492" /></g><g
           id="g3494"
           transform="translate(118.0791,273.3872)"><path
             d="M 0,0 C -33.707,-15.883 -54.466,-37.568 -54.466,-61.476"
             style="fill:none;stroke:#000000;stroke-width:15;stroke-linecap:round;stroke-linejoin:round;stroke-miterlimit:10;stroke-dasharray:none;stroke-opacity:1"
             id="path3496" /></g><g
           id="g3498"
           transform="translate(448.3872,211.9111)"><path
             d="m 0,0 c 0,48.699 -86.135,88.178 -192.387,88.178 -39.187,0 -75.637,-5.37 -106.039,-14.592"
             style="fill:none;stroke:#000000;stroke-width:15;stroke-linecap:round;stroke-linejoin:round;stroke-miterlimit:10;stroke-dasharray:none;stroke-opacity:1"
             id="path3500" /></g><g
           id="g3502"
           transform="translate(423.8853,170.3364)"><path
             d="m 0,0 c -6.372,45.653 -79.102,81.655 -167.885,81.655 -87.16,0 -158.849,-34.697 -167.47,-79.161"
             style="fill:none;stroke:#000000;stroke-width:15;stroke-linecap:round;stroke-linejoin:round;stroke-miterlimit:10;stroke-dasharray:none;stroke-opacity:1"
             id="path3504" /></g><g
           id="g3506"
           transform="translate(207.9033,251.9917)"><path
             d="M 0,0 -17.034,138.779"
             style="fill:none;stroke:#000000;stroke-width:15;stroke-linecap:round;stroke-linejoin:round;stroke-miterlimit:10;stroke-dasharray:none;stroke-opacity:1"
             id="path3508" /></g><g
           id="g3510"
           transform="translate(76.6392,366.2217)"><path
             d="M 0,0 62.73,-136.695"
             style="fill:none;stroke:#000000;stroke-width:15;stroke-linecap:round;stroke-linejoin:round;stroke-miterlimit:10;stroke-dasharray:none;stroke-opacity:1"
             id="path3512" /></g><g
           id="g3514"
           transform="translate(7.5,308.105)"><path
             d="M 0,0 C 0,48.699 111.257,88.177 248.5,88.177 385.743,88.177 497,48.699 497,0"
             style="fill:none;stroke:#000000;stroke-width:15;stroke-linecap:round;stroke-linejoin:round;stroke-miterlimit:10;stroke-dasharray:none;stroke-opacity:1"
             id="path3516" /></g><g
           id="g3518"
           transform="translate(304.0967,251.9917)"><path
             d="M 0,0 17.034,138.779"
             style="fill:none;stroke:#000000;stroke-width:15;stroke-linecap:round;stroke-linejoin:round;stroke-miterlimit:10;stroke-dasharray:none;stroke-opacity:1"
             id="path3520" /></g><g
           id="g3522"
           transform="translate(435.3608,366.2217)"><path
             d="M 0,0 -63.033,-137.356"
             style="fill:none;stroke:#000000;stroke-width:15;stroke-linecap:round;stroke-linejoin:round;stroke-miterlimit:10;stroke-dasharray:none;stroke-opacity:1"
             id="path3524" /></g></g></g></g></svg>
