<?xml version="1.0" encoding="iso-8859-1"?>
<!-- Generator: Adobe Illustrator 19.0.0, SVG Export Plug-In . SVG Version: 6.00 Build 0)  -->
<svg version="1.1" id="Capa_1" xmlns="http://www.w3.org/2000/svg" xmlns:xlink="http://www.w3.org/1999/xlink" x="0px" y="0px"
	 viewBox="0 0 472 472" style="enable-background:new 0 0 472 472;" xml:space="preserve">
<g>
	<g>
		<path d="M464,364h-58.8l45.776-18.312c4.102-1.641,6.097-6.297,4.456-10.399c0,0,0-0.001,0-0.001L381.152,149.6l-17.824-44.568
			c-1.641-4.102-6.297-6.097-10.399-4.456c0,0-0.001,0-0.001,0L288,126.536V124c0-4.418-3.582-8-8-8h-72V68c0-4.418-3.582-8-8-8H40
			c-4.418,0-8,3.582-8,8v296H8c-4.418,0-8,3.582-8,8v32c0,4.418,3.582,8,8,8h456c4.418,0,8-3.582,8-8v-32
			C472,367.582,468.418,364,464,364z M369.264,162.968l68.336,170.84L378.176,357.6L309.84,186.736L369.264,162.968z M351.44,118.4
			l11.88,29.704l-59.424,23.776L292,142.168L351.44,118.4z M288,175.2L363.512,364H288V175.2z M208,132h64v32h-64V132z M208,180h64
			v136h-64V180z M208,332h64v32h-64V332z M128,76h64v48v144h-64V76z M128,284h64v16h-64V284z M128,316h64v48h-64V316z M48,76h64v192
			H48V76z M48,284h64v16H48V284z M48,316h64v48H48V316z M456,396H16v-16h440V396z"/>
	</g>
</g>
<g>
	<g>
		<path d="M88,84H72c-4.418,0-8,3.582-8,8s3.582,8,8,8h16c4.418,0,8-3.582,8-8S92.418,84,88,84z"/>
	</g>
</g>
<g>
	<g>
		<path d="M80,116c-4.418,0-8,3.582-8,8v112c0,4.418,3.582,8,8,8s8-3.582,8-8V124C88,119.582,84.418,116,80,116z"/>
	</g>
</g>
<g>
	<g>
		<path d="M168,84h-16c-4.418,0-8,3.582-8,8s3.582,8,8,8h16c4.418,0,8-3.582,8-8S172.418,84,168,84z"/>
	</g>
</g>
<g>
	<g>
		<path d="M160,116c-4.418,0-8,3.582-8,8v112c0,4.418,3.582,8,8,8s8-3.582,8-8V124C168,119.582,164.418,116,160,116z"/>
	</g>
</g>
<g>
	<g>
		<path d="M240,196c-4.418,0-8,3.582-8,8v88c0,4.418,3.582,8,8,8s8-3.582,8-8v-88C248,199.582,244.418,196,240,196z"/>
	</g>
</g>
<g>
	<g>
		<path d="M388.576,275.864l-32.68-81.704c-1.641-4.102-6.298-6.097-10.4-4.456c-4.102,1.641-6.097,6.298-4.456,10.4l32.68,81.712
			c1.644,4.102,6.302,6.096,10.404,4.452C388.226,284.624,390.22,279.966,388.576,275.864z"/>
	</g>
</g>
<g>
</g>
<g>
</g>
<g>
</g>
<g>
</g>
<g>
</g>
<g>
</g>
<g>
</g>
<g>
</g>
<g>
</g>
<g>
</g>
<g>
</g>
<g>
</g>
<g>
</g>
<g>
</g>
<g>
</g>
</svg>
