<?xml version="1.0"?>
<svg xmlns="http://www.w3.org/2000/svg" id="Layer_1" data-name="Layer 1" viewBox="0 0 128 128"><title/><path d="M75.65137,50.70166c-.00623.0058-.1048.09521-.26855.233a33.30235,33.30235,0,0,1,3.62189,1.09308,1.98983,1.98983,0,0,0-3.35333-1.32611Z"/><path d="M56.66895,47.71191A26.38246,26.38246,0,0,0,58.337,51.28534a33.26566,33.26566,0,0,1,4.146-.89557,20.7858,20.7858,0,0,1-2.26038-4.59631,2.01521,2.01521,0,0,0-.7207-.94775c-.05078-.03613-5.05859-3.67383-5.47461-8.79248-.24512-3.0127,1.16406-6.06738,4.18848-9.0791a2.00959,2.00959,0,0,0,.58887-1.437c-.001-.08252-.01465-8.29395,4.623-12.25146,2.22559-1.89844,5.2832-2.53809,9.08594-1.8999a2.00351,2.00351,0,0,0,2.14258-1.12549c.02148-.04639,2.21387-4.63184,6.94922-5.92383,3.53906-.96582,7.67871.14893,12.30176,3.31592a2.00636,2.00636,0,0,0,2.17969.05225c.05078-.03174,5.21875-3.14551,9.83789-1.37354,3.02734,1.16016,5.29883,4.2251,6.751,9.10889a2.00717,2.00717,0,0,0,1.23535,1.31055c.07813.02832,7.82813,2.917,9.68555,9.01025,1.08789,3.56934-.0459,7.69482-3.37012,12.26172a2.0003,2.0003,0,0,0,3.23438,2.35449c4.11035-5.647,5.44141-10.96533,3.9541-15.80762C125.38867,17.96973,118.72461,14.48,116.21973,13.376c-1.85742-5.626-4.84766-9.25439-8.89648-10.79248-4.957-1.88232-9.96875.0166-12.17871,1.09375C89.89746.34375,84.99414-.7334,80.55273.47754A15.6047,15.6047,0,0,0,71.77832,7.25c-4.418-.4624-8.09277.54883-10.96387,3.00732-5.08789,4.356-5.87207,11.91406-5.98926,14.46631-3.51367,3.71924-5.12109,7.64795-4.78223,11.688C50.53906,42.30859,55.10059,46.45117,56.66895,47.71191Z"/><path d="M67.49316,62a2,2,0,0,0,0,4,17.50673,17.50673,0,0,1,13.00739,5.80536,20.18527,20.18527,0,0,0,2.89471-2.76807A21.487,21.487,0,0,0,67.49316,62Z"/><path d="M94.32617,57.63428c.05042.44281.08954.89935.11871,1.36572h4.0058c-.0354-.61755-.08264-1.22656-.1499-1.81787C97.36914,49.001,91.4209,43.00439,80.62109,39.35889c-1.21-.4082-2.46094-.78369-3.76562-1.12891,4.83789-.27686,9.5957.019,13.7832,1.69189A2,2,0,0,0,93.292,37.47461a30.05425,30.05425,0,0,0-3.45508-7.415c-.03516-.05566-.07129-.11035-.10742-.16455q.03516.01025.07031.022c4.21094,1.31543,6.82324,4.94775,8.27441,7.7627a25.11781,25.11781,0,0,1,1.499,3.97217,34.67491,34.67491,0,0,0,1.29,3.6084,2.00791,2.00791,0,0,0,.34961.53809,2.04823,2.04823,0,0,0,1.5498.6582c1.53516-.04395,4.28516-3.29639,4.31348-3.33154,2.40625-2.98682,2.18262-6.41113,1.95117-9.44873,2.88379,4.11328,2.36133,10.104-1.56348,17.83789A41.0661,41.0661,0,0,0,104.4986,59h2.88324q.64178,0,1.27625.06049a38.20126,38.20126,0,0,1,2.37219-5.73578c6.42871-12.666,3.5166-19.80713-.05664-23.56689a17.56286,17.56286,0,0,0-2.835-2.26855,1.99933,1.99933,0,0,0-3.11426,1.35693,22.496,22.496,0,0,0,.00488,5.00391c.20313,2.6665.37891,4.96924-1.00391,6.69043-.07617.082-.24609.25146-.46191.46338q-.08789-.27539-.17578-.55664a28.54545,28.54545,0,0,0-1.75781-4.59961c-1.80078-3.49365-5.10742-8.02051-10.63672-9.74854a10.73532,10.73532,0,0,0-6.126-.41309,2,2,0,0,0-1.11426,3.04736,21.85173,21.85173,0,0,0,1.42383,1.82031,16.921,16.921,0,0,1,1.29785,1.67236,25.92236,25.92236,0,0,1,1.53125,2.72168c-5.9707-1.32666-12.41992-.80713-18.60742.0166a2.90035,2.90035,0,0,0-.10059,5.74316A64.716,64.716,0,0,1,79.3418,43.14893C88.54395,46.25537,93.58594,51.12891,94.32617,57.63428Z"/><path d="M79.35645,77.10645a1.99993,1.99993,0,1,0,1.28711,3.78711c.03589-.01215.16486-.05853.35645-.13678V93a6.00656,6.00656,0,0,0,6,6h35a6.00656,6.00656,0,0,0,6-6V81.81445a8.01549,8.01549,0,0,0-2.63965-5.939L113.88281,65.51514A9.69623,9.69623,0,0,0,107.38184,63H93a2.04854,2.04854,0,0,0-1.81543,1.16064C86.39941,74.51025,79.41406,77.08545,79.35645,77.10645ZM96.167,95h-4V91a2,2,0,0,1,4,0ZM124,81.81445V93a2.00229,2.00229,0,0,1-2,2H107V79.50922A30.0779,30.0779,0,0,0,116.34668,81h7.56708A3.98508,3.98508,0,0,1,124,81.81445ZM107.38184,67a5.7029,5.7029,0,0,1,3.82129,1.48486L120.63611,77h-4.28943a24.60879,24.60879,0,0,1-16.00684-5.65283A21.703,21.703,0,0,1,96.42365,67ZM93.07129,69.18848a25.7002,25.7002,0,0,0,4.6748,5.20361A26.68221,26.68221,0,0,0,103,77.84979V95h-2.833V91a6,6,0,0,0-12,0v4H87a2.00229,2.00229,0,0,1-2-2V78.42334A30.36992,30.36992,0,0,0,93.07129,69.18848Z"/><path d="M6,128H41a6.00656,6.00656,0,0,0,6-6V109.75677c.19159.07825.32056.12463.35645.13678a2,2,0,0,0,1.29883-3.7832c-.06934-.0249-7.05469-2.6001-11.83984-12.94971A2.05182,2.05182,0,0,0,35,92H20.61816a9.69487,9.69487,0,0,0-6.501,2.51563L2.63867,104.876A8.01627,8.01627,0,0,0,0,110.81445V122A6.00656,6.00656,0,0,0,6,128Zm29.833-4h-4v-4a2,2,0,0,1,4,0ZM43,107.42334V122a2.00229,2.00229,0,0,1-2,2H39.833v-4a6,6,0,0,0-12,0v4H25V106.84979a26.68221,26.68221,0,0,0,5.25391-3.4577,25.7002,25.7002,0,0,0,4.6748-5.20361A30.36992,30.36992,0,0,0,43,107.42334Zm-26.20312-9.938A5.701,5.701,0,0,1,20.61816,96H31.57635a21.703,21.703,0,0,1-3.9162,4.34717A24.60879,24.60879,0,0,1,11.65332,106H7.36365ZM4,110.81445A3.98508,3.98508,0,0,1,4.08624,110h7.56708A30.0779,30.0779,0,0,0,21,108.50922V124H6a2.00229,2.00229,0,0,1-2-2Z"/><path d="M58,97a2.0001,2.0001,0,0,0,2,2H76a2,2,0,0,0,0-4H60A2.0001,2.0001,0,0,0,58,97Z"/><path d="M52,95H50a2,2,0,0,0,0,4h2a2,2,0,0,0,0-4Z"/><path d="M12.62207,77.11572a1.99988,1.99988,0,1,0,2.582,3.05469A17.52828,17.52828,0,0,1,26.49316,76a2,2,0,0,0,0-4A21.53032,21.53032,0,0,0,12.62207,77.11572Z"/><path d="M.2334,79.98633a1.99995,1.99995,0,1,0,3.5332,1.875A25.77343,25.77343,0,0,1,26.49316,68,25.9268,25.9268,0,0,1,52.02344,90.30713a2.00072,2.00072,0,0,0,1.97363,1.69336,1.97553,1.97553,0,0,0,.31055-.02441,2.00061,2.00061,0,0,0,1.66895-2.2832A30.5216,30.5216,0,0,0,45.36761,70.81506,25.72267,25.72267,0,0,1,67.49316,58a25.46358,25.46358,0,0,1,18.30835,7.73938,30.48172,30.48172,0,0,0,1.7522-3.25745c.06525-.14056.1557-.27765.23364-.41541a29.53034,29.53034,0,0,0-45.6778,6.39471A29.40526,29.40526,0,0,0,26.49316,64,29.76418,29.76418,0,0,0,.2334,79.98633Z"/><path d="M126,107H64a2,2,0,0,0,0,4h62a2,2,0,0,0,0-4Z"/><path d="M126,124H74a2,2,0,0,0,0,4h52a2,2,0,0,0,0-4Z"/><path d="M74,120h2a2,2,0,0,0,0-4H74a2,2,0,0,0,0,4Z"/><path d="M107.09082,120a2,2,0,1,0,0-4h-3.4541a2,2,0,1,0,0,4Z"/><path d="M86.36328,120a2,2,0,0,0,0-4h-3.4541a2,2,0,0,0,0,4Z"/><path d="M96.72754,120a2,2,0,0,0,0-4H93.27246a2,2,0,0,0,0,4Z"/><path d="M116,120a2,2,0,0,0,0-4h-2a2,2,0,0,0,0,4Z"/><path d="M18,8a2.0001,2.0001,0,0,0,2-2V2a2,2,0,0,0-4,0V6A2.0001,2.0001,0,0,0,18,8Z"/><path d="M18,26a8,8,0,1,0-8-8A8.00917,8.00917,0,0,0,18,26Zm0-12a4,4,0,1,1-4,4A4.00427,4.00427,0,0,1,18,14Z"/><path d="M20,34V30a2,2,0,0,0-4,0v4a2,2,0,0,0,4,0Z"/><path d="M28,18a2.0001,2.0001,0,0,0,2,2h4a2,2,0,0,0,0-4H30A2.0001,2.0001,0,0,0,28,18Z"/><path d="M2,20H6a2,2,0,0,0,0-4H2a2,2,0,0,0,0,4Z"/><path d="M26.48535,11.51465a1.99352,1.99352,0,0,0,1.41406-.58594l1.41406-1.41406a1.99979,1.99979,0,0,0-2.82812-2.82812L25.07129,8.10059a2,2,0,0,0,1.41406,3.41406Z"/><path d="M9.51465,29.31348l1.41406-1.41406a1.99979,1.99979,0,0,0-2.82813-2.82812L6.68652,26.48535a1.99979,1.99979,0,1,0,2.82813,2.82813Z"/><path d="M27.89941,29.89941a2,2,0,0,0,1.41406-3.41406l-1.41406-1.41406a1.99979,1.99979,0,0,0-2.82812,2.82813l1.41406,1.41406A1.99352,1.99352,0,0,0,27.89941,29.89941Z"/><path d="M8.10059,10.92871a1.99979,1.99979,0,0,0,2.82813-2.82813L9.51465,6.68652A1.99979,1.99979,0,0,0,6.68652,9.51465Z"/><path d="M112,88a2.0001,2.0001,0,0,0,2,2h4a2,2,0,0,0,0-4h-4A2.0001,2.0001,0,0,0,112,88Z"/><path d="M10,120h4a2,2,0,0,0,0-4H10a2,2,0,0,0,0,4Z"/></svg>
