<?xml version="1.0" encoding="UTF-8"?>
<svg xmlns="http://www.w3.org/2000/svg" width="512" height="512" viewBox="0 0 128 128"><g><path d="M124,2.25H4A1.749,1.749,0,0,0,2.25,4V84A1.749,1.749,0,0,0,4,85.75h6.25v8.774A5.749,5.749,0,0,0,12,105.75h6.25v8.5H4A1.749,1.749,0,0,0,2.25,116v8A1.749,1.749,0,0,0,4,125.75H124a1.749,1.749,0,0,0,1.75-1.75v-8a1.749,1.749,0,0,0-1.75-1.75H109.75v-8.5H116a5.749,5.749,0,0,0,1.75-11.226V85.75H124A1.749,1.749,0,0,0,125.75,84V4A1.749,1.749,0,0,0,124,2.25ZM88.041,36.339a40.435,40.435,0,0,1-9.325-7.055,40.452,40.452,0,0,1-7.055-9.324,24.716,24.716,0,0,1,8.724.392,10.345,10.345,0,0,1,4.842,2.42,10.352,10.352,0,0,1,2.423,4.852A24.711,24.711,0,0,1,88.041,36.339Zm-20-15.756a43.149,43.149,0,0,0,8.2,11.176,43.149,43.149,0,0,0,11.176,8.2,36.837,36.837,0,0,1-9.678,17.78,35.514,35.514,0,0,1-7.826,5.867,13.59,13.59,0,0,0-12.075.121,45.73,45.73,0,0,0-6.081-7.483,43.242,43.242,0,0,0-11.173-8.205,36.521,36.521,0,0,1,9.678-17.777A36.82,36.82,0,0,1,68.042,20.583ZM114.25,94.25H93.75V76a10.25,10.25,0,0,1,20.5,0Zm-24,.274A5.749,5.749,0,0,0,92,105.75h6.25v8.5H69.75v-8.5H76a5.749,5.749,0,0,0,1.75-11.226V85.75h12.5ZM52,97.75H76a2.25,2.25,0,0,1,0,4.5H52a2.25,2.25,0,0,1,0-4.5Zm9.75,8h4.5v8.5h-4.5Zm12.5-11.5H53.75V76a10.25,10.25,0,0,1,20.5,0Zm-34.3-42.595a40.485,40.485,0,0,1,9.328,7.063,42.2,42.2,0,0,1,5.656,6.967,13.879,13.879,0,0,0-2.271,2.544,21.188,21.188,0,0,1-5.051-.582,10.349,10.349,0,0,1-4.843-2.42,10.36,10.36,0,0,1-2.422-4.852A25.3,25.3,0,0,1,39.954,51.655Zm10.3,42.869A5.749,5.749,0,0,0,52,105.75h6.25v8.5H29.75v-8.5H36a5.749,5.749,0,0,0,1.75-11.226V85.75h12.5Zm-16-.274H13.75V76a10.25,10.25,0,0,1,20.5,0ZM9.75,100A2.253,2.253,0,0,1,12,97.75H36a2.25,2.25,0,0,1,0,4.5H12A2.253,2.253,0,0,1,9.75,100Zm12,5.75h4.5v8.5h-4.5Zm100.5,16.5H5.75v-4.5h116.5Zm-16-8h-4.5v-8.5h4.5Zm9.75-12H92a2.25,2.25,0,0,1,0-4.5h24a2.25,2.25,0,0,1,0,4.5Zm6.25-20h-4.5V76a13.75,13.75,0,0,0-27.5,0v6.25H77.75V76a13.7,13.7,0,0,0-4.592-10.227,38.781,38.781,0,0,0,7.056-5.56A40.152,40.152,0,0,0,91.127,39.385c.009-.035.015-.07.021-.106a30.038,30.038,0,0,0-.1-12.5A13.58,13.58,0,0,0,87.7,20.3a13.573,13.573,0,0,0-6.47-3.343,30.041,30.041,0,0,0-12.517-.1l-.095.018A39.447,39.447,0,0,0,36.867,48.627l-.012.056,0,.019a30.668,30.668,0,0,0,.1,12.52A13.578,13.578,0,0,0,40.3,67.7a13.567,13.567,0,0,0,6.471,3.343,23.233,23.233,0,0,0,4.187.631A13.7,13.7,0,0,0,50.25,76v6.25H37.75V76a13.75,13.75,0,0,0-27.5,0v6.25H5.75V5.75h116.5Z"/><path d="M56.513,53.237a1.746,1.746,0,0,0,1.237-.512L72.726,37.749a1.75,1.75,0,1,0-2.475-2.475L55.275,50.25a1.75,1.75,0,0,0,1.238,2.987Z"/><path d="M29.237,74.763a1.748,1.748,0,0,0-2.474,0L24,77.525l-2.763-2.762a1.749,1.749,0,0,0-2.474,2.474L21.525,80l-2.762,2.763a1.749,1.749,0,1,0,2.474,2.474L24,82.475l2.763,2.762a1.749,1.749,0,1,0,2.474-2.474L26.475,80l2.762-2.763A1.748,1.748,0,0,0,29.237,74.763Z"/><path d="M109.237,74.763a1.748,1.748,0,0,0-2.474,0L104,77.525l-2.763-2.762a1.749,1.749,0,0,0-2.474,2.474L101.525,80l-2.762,2.763a1.749,1.749,0,1,0,2.474,2.474L104,82.475l2.763,2.762a1.749,1.749,0,0,0,2.474-2.474L106.475,80l2.762-2.763A1.748,1.748,0,0,0,109.237,74.763Z"/><path d="M64,74.25A5.75,5.75,0,1,0,69.75,80,5.756,5.756,0,0,0,64,74.25Zm0,8A2.25,2.25,0,1,1,66.25,80,2.253,2.253,0,0,1,64,82.25Z"/><path d="M18,25.75H34a7.75,7.75,0,0,0,0-15.5H18a7.75,7.75,0,0,0,0,15.5Zm0-12H34a4.25,4.25,0,0,1,0,8.5H18a4.25,4.25,0,0,1,0-8.5Z"/></g></svg>
