<?xml version="1.0" encoding="UTF-8" standalone="no"?>
<!-- Created with Inkscape (http://www.inkscape.org/) -->

<svg
   version="1.1"
   id="svg4845"
   xml:space="preserve"
   width="682.66669"
   height="682.66669"
   viewBox="0 0 682.66669 682.66669"
   xmlns="http://www.w3.org/2000/svg"
   xmlns:svg="http://www.w3.org/2000/svg"><defs
     id="defs4849"><clipPath
       clipPathUnits="userSpaceOnUse"
       id="clipPath4859"><path
         d="M 0,512 H 512 V 0 H 0 Z"
         id="path4857" /></clipPath></defs><g
     id="g4851"
     transform="matrix(1.3333333,0,0,-1.3333333,0,682.66667)"><g
       id="g4853"><g
         id="g4855"
         clip-path="url(#clipPath4859)"><g
           id="g4861"
           transform="translate(131.75,227.5996)"><path
             d="m 0,0 c -9.61,3.391 -17.76,9.841 -23.3,18.181 -8.34,-12.561 -22.61,-20.84 -38.82,-20.84 -25.74,0 -46.6,20.859 -46.6,46.59 0,21.489 14.56,39.58 34.35,44.96 -2.11,5.309 -3.28,11.099 -3.28,17.17 0,25.729 20.86,46.589 46.59,46.589 0.9,0 1.8,-0.03 2.69,-0.08 -1.74,4.88 -2.69,10.13 -2.69,15.611 0,25.729 20.86,46.59 46.59,46.59 25.73,0 46.6,-20.861 46.6,-46.59 0,-5.481 -0.96,-10.731 -2.69,-15.611 0.89,0.05 1.78,0.08 2.69,0.08 8.71,0 16.86,-2.389 23.83,-6.549"
             style="fill:none;stroke:#000000;stroke-width:15;stroke-linecap:round;stroke-linejoin:round;stroke-miterlimit:10;stroke-dasharray:none;stroke-opacity:1"
             id="path4863" /></g><g
           id="g4865"
           transform="translate(238.1602,348.1904)"><path
             d="m 0,0 c 3.375,-10.625 3.052,-21.191 -0.97,-31.7 19.79,-5.38 34.34,-23.471 34.34,-44.96 0,-25.731 -20.86,-46.59 -46.59,-46.59 -16.21,0 -30.48,8.279 -38.83,20.84 -5.54,-8.34 -13.69,-14.79 -23.301,-18.181"
             style="fill:none;stroke:#000000;stroke-width:15;stroke-linecap:round;stroke-linejoin:round;stroke-miterlimit:10;stroke-dasharray:none;stroke-opacity:1"
             id="path4867" /></g><g
           id="g4869"
           transform="translate(302.5898,209.5596)"><path
             d="M 0,0 V 31.07 H 31.07 V 0"
             style="fill:none;stroke:#000000;stroke-width:15;stroke-linecap:round;stroke-linejoin:round;stroke-miterlimit:10;stroke-dasharray:none;stroke-opacity:1"
             id="path4871" /></g><g
           id="g4873"
           transform="translate(333.6602,178.3896)"><path
             d="M 0,0 V -30.949 H -31.07 V 0"
             style="fill:none;stroke:#000000;stroke-width:15;stroke-linecap:round;stroke-linejoin:round;stroke-miterlimit:10;stroke-dasharray:none;stroke-opacity:1"
             id="path4875" /></g><g
           id="g4877"
           transform="translate(395.7803,209.5596)"><path
             d="M 0,0 V 31.07 H 31.06 V 0"
             style="fill:none;stroke:#000000;stroke-width:15;stroke-linecap:round;stroke-linejoin:round;stroke-miterlimit:10;stroke-dasharray:none;stroke-opacity:1"
             id="path4879" /></g><g
           id="g4881"
           transform="translate(426.8398,178.3896)"><path
             d="M 0,0 V -30.949 H -31.06 V 0"
             style="fill:none;stroke:#000000;stroke-width:15;stroke-linecap:round;stroke-linejoin:round;stroke-miterlimit:10;stroke-dasharray:none;stroke-opacity:1"
             id="path4883" /></g><g
           id="g4885"
           transform="translate(162.8096,130.71)"><path
             d="m 0,0 v -61.08 h -31.06 v 295.09 c 0,8.58 6.951,15.53 15.531,15.53 C -6.949,249.54 0,242.59 0,234.01 V 32.69"
             style="fill:none;stroke:#000000;stroke-width:15;stroke-linecap:round;stroke-linejoin:round;stroke-miterlimit:10;stroke-dasharray:none;stroke-opacity:1"
             id="path4887" /></g><g
           id="g4889"
           transform="translate(162.8135,271.4189)"><path
             d="M 0,0 31.062,20.708"
             style="fill:none;stroke:#000000;stroke-width:15;stroke-linecap:round;stroke-linejoin:round;stroke-miterlimit:10;stroke-dasharray:none;stroke-opacity:1"
             id="path4891" /></g><g
           id="g4893"
           transform="translate(100.6885,323.3018)"><path
             d="M 0,0 31.062,-20.708"
             style="fill:none;stroke:#000000;stroke-width:15;stroke-linecap:round;stroke-linejoin:round;stroke-miterlimit:10;stroke-dasharray:none;stroke-opacity:1"
             id="path4895" /></g><g
           id="g4897"
           transform="translate(383.0303,209.5596)"><path
             d="M 0,0 H 74.87 V -31.17 H -111.5 V 0 h 78.819"
             style="fill:none;stroke:#000000;stroke-width:15;stroke-linecap:round;stroke-linejoin:round;stroke-miterlimit:10;stroke-dasharray:none;stroke-opacity:1"
             id="path4899" /></g><path
           d="M 488.967,116.378 H 240.469 v 31.062 h 248.498 z"
           style="fill:none;stroke:#000000;stroke-width:15;stroke-linecap:round;stroke-linejoin:round;stroke-miterlimit:10;stroke-dasharray:none;stroke-opacity:1"
           id="path4901" /><path
           d="m 271.531,116.378 h 31.062 V 69.784 h -31.062 z"
           style="fill:none;stroke:#000000;stroke-width:15;stroke-linecap:round;stroke-linejoin:round;stroke-miterlimit:10;stroke-dasharray:none;stroke-opacity:1"
           id="path4903" /><path
           d="m 426.843,116.378 h 31.062 V 69.784 h -31.062 z"
           style="fill:none;stroke:#000000;stroke-width:15;stroke-linecap:round;stroke-linejoin:round;stroke-miterlimit:10;stroke-dasharray:none;stroke-opacity:1"
           id="path4905" /><g
           id="g4907"
           transform="translate(7.502,69.627)"><path
             d="M 0,0 H 496.996"
             style="fill:none;stroke:#000000;stroke-width:15;stroke-linecap:round;stroke-linejoin:round;stroke-miterlimit:10;stroke-dasharray:none;stroke-opacity:1"
             id="path4909" /></g></g></g></g></svg>
