<svg height="512" viewBox="0 0 64 64" width="512" xmlns="http://www.w3.org/2000/svg"><path d="m47.40723 9.54787a6.9681 6.9681 0 0 1 9.88574 0 1.00009 1.00009 0 0 0 1.414-1.41412 9.00959 9.00959 0 0 0 -12.71381.00012 1.00006 1.00006 0 0 0 1.41407 1.414z"/><path d="m48.81738 10.94924a1.00011 1.00011 0 0 0 1.40436 1.42376 3.0819 3.0819 0 0 1 4.2558.00006.99992.99992 0 0 0 1.4043-1.42383 5.03134 5.03134 0 0 0 -7.06446.00001z"/><path d="m49 25.49123h2a1.0001 1.0001 0 0 0 -.00006-2h-1.99994a1.0001 1.0001 0 0 0 0 2z"/><path d="m54 25.49123h2a1.0001 1.0001 0 0 0 -.00006-2h-1.99994a1.0001 1.0001 0 0 0 0 2z"/><path d="m49 29.49123h2a1.0001 1.0001 0 0 0 -.00006-2h-1.99994a1.0001 1.0001 0 0 0 0 2z"/><path d="m54 29.49123h2a1.0001 1.0001 0 0 0 -.00006-2h-1.99994a1.0001 1.0001 0 0 0 0 2z"/><path d="m49 33.49123h2a1.0001 1.0001 0 0 0 -.00006-2h-1.99994a1.0001 1.0001 0 0 0 0 2z"/><path d="m54 33.49123h2a1.0001 1.0001 0 0 0 -.00006-2h-1.99994a1.0001 1.0001 0 0 0 0 2z"/><path d="m58 14.49123h-52a4.00427 4.00427 0 0 0 -4 4v36a4.00426 4.00426 0 0 0 4 4h52a4.004 4.004 0 0 0 4-4v-36a4.004 4.004 0 0 0 -4-4zm2 40a2.0026 2.0026 0 0 1 -2 2h-52a2.00229 2.00229 0 0 1 -2-2v-36a2.00229 2.00229 0 0 1 2-2h52a2.0026 2.0026 0 0 1 2 2z"/><path d="m42 19.49123h-33a3.00328 3.00328 0 0 0 -3 3v28a3.00328 3.00328 0 0 0 3 3h33a3.00328 3.00328 0 0 0 3-3v-28a3.00328 3.00328 0 0 0 -3-3zm-7 32h-18v-2a9.05944 9.05944 0 0 1 6.06824-8.50006 8.92979 8.92979 0 0 0 5.86352 0 9.05944 9.05944 0 0 1 6.06824 8.50006zm-11.42334-21.0498c1.22137-.34143 2.18408-.33124 2.8125.72656 1.29626 2.21424 4.18134 2.31091 6.59967 1.54328a6.99545 6.99545 0 1 1 -13.40643-3.00708 3.91184 3.91184 0 0 0 3.99426.73724zm-2.88135-2.50443a7.01662 7.01662 0 0 1 12.06238 2.75812c-1.8562.53681-3.80432.90271-4.72449-.66479a4.11876 4.11876 0 0 0 -4.92828-1.53211c-1.13171.28647-1.77802.35172-2.40961-.56122zm22.30469 22.55423a1.00067 1.00067 0 0 1 -1 1h-5v-2a10.922 10.922 0 0 0 -5.78394-9.6795c7.05347-4.99988 3.5409-16.29279-5.21618-16.3205-8.77228.04877-12.25556 11.34113-5.216 16.32044a10.92167 10.92167 0 0 0 -5.78388 9.67956v2h-6a1.001 1.001 0 0 1 -1-1v-28a1.001 1.001 0 0 1 1-1h33a1.00068 1.00068 0 0 1 1 1z"/><path d="m52.5 38.49123a5.50685 5.50685 0 0 0 -5.5 5.5c.25891 7.27912 10.74219 7.27729 11-.00012a5.50683 5.50683 0 0 0 -5.5-5.49988zm0 9a3.50014 3.50014 0 0 1 .00006-7 3.50014 3.50014 0 0 1 -.00006 7z"/></svg>